<?xml version="1.0" encoding="UTF-8"?>
<svg width="72px" height="86px" viewBox="0 0 72 86" version="1.1" xmlns="http://www.w3.org/2000/svg" xmlns:xlink="http://www.w3.org/1999/xlink">
    <!-- Generator: Sketch 48.2 (47327) - http://www.bohemiancoding.com/sketch -->
    <title>profile_generic</title>
    <desc>Created with Sketch.</desc>
    <defs></defs>
    <g id="Page-1" stroke="none" stroke-width="1" fill="none" fill-rule="evenodd">
        <g id="profile_generic" fill="#2980B9">
            <g id="Shape">
                <path d="M36,40.4 C47,40.4 56,31.4 56,20.4 C56,9.4 47,0.4 36,0.4 C25,0.4 16,9.4 16,20.4 C16,31.4 25,40.4 36,40.4 Z M36,8.4 C42.6,8.4 48,13.8 48,20.4 C48,27 42.6,32.4 36,32.4 C29.4,32.4 24,27 24,20.4 C24,13.8 29.4,8.4 36,8.4 Z" fill-rule="nonzero"></path>
                <path d="M4.6,85.6 L67.4,85.6 C69.6,85.6 71.4,83.8 71.4,81.6 L71.4,70.6 C71.4,55.2 58.8,42.6 43.4,42.6 L28.6,42.6 C13.2,42.6 0.6,55.2 0.6,70.6 L0.6,81.6 C0.6,83.9 2.4,85.6 4.6,85.6 Z M8.6,70.7 C8.6,59.7 17.6,50.7 28.6,50.7 L43.4,50.7 C54.4,50.7 63.4,59.7 63.4,70.7 L63.4,77.7 L8.6,77.7 L8.6,70.7 Z" fill-rule="nonzero"></path>
            </g>
        </g>
    </g>
</svg>